<?xml version="1.0" encoding="UTF-8" standalone="no"?>
<!-- Created with Inkscape (http://www.inkscape.org/) -->

<svg
   version="1.1"
   id="svg1"
   width="566.92914"
   height="377.95276"
   viewBox="0 0 566.92914 377.95276"
   xmlns="http://www.w3.org/2000/svg"
   xmlns:svg="http://www.w3.org/2000/svg">
  <defs
     id="defs1">
    <clipPath
       clipPathUnits="userSpaceOnUse"
       id="clipPath10">
      <path
         d="m 373.552,82.838667 h 97.02133 V 124.27067 H 373.552 Z m 0,41.432003 H 424.24 V 178.708 h -50.688 z m 97.02133,0 h 52.00534 V 178.708 H 470.57333 Z M 424.24,178.708 h 98.33867 v 44.62 H 424.24 Z"
         id="path10" />
    </clipPath>
  </defs>
  <g
     id="g1">
    <path
       id="path1"
       d="m 112.496,129.32 v 10.125 h 11.516 v 4.235 h -11.516 v 10.515 h 12.953 v 4.266 h -18.437 v -33.406 h 18.437 v 4.265 z"
       style="fill:#dfdad4;fill-opacity:1;fill-rule:nonzero;stroke:none"
       transform="scale(1.3333333)" />
    <path
       id="path2"
       d="m 150.527,158.461 -12.906,-14.922 v 14.922 h -5.484 v -33.359 h 5.484 v 15.218 l 12.953,-15.218 h 6.86 l -14.485,16.703 14.735,16.656 z"
       style="fill:#dfdad4;fill-opacity:1;fill-rule:nonzero;stroke:none"
       transform="scale(1.3333333)" />
    <path
       id="path3"
       d="m 173.512,158.805 c -2.242,0 -4.258,-0.391 -6.047,-1.172 -1.793,-0.789 -3.203,-1.906 -4.235,-3.344 -1.023,-1.445 -1.531,-3.129 -1.531,-5.047 h 5.86 c 0.125,1.512 0.691,2.746 1.703,3.703 1.008,0.961 2.426,1.438 4.25,1.438 1.883,0 3.351,-0.469 4.406,-1.406 1.062,-0.946 1.594,-2.176 1.594,-3.688 0,-1.113 -0.328,-2.019 -0.985,-2.719 -0.656,-0.707 -1.476,-1.254 -2.453,-1.64 -0.969,-0.383 -2.32,-0.801 -4.047,-1.25 -2.179,-0.571 -3.949,-1.157 -5.312,-1.75 -1.356,-0.594 -2.516,-1.516 -3.485,-2.766 -0.96,-1.25 -1.437,-2.91 -1.437,-4.984 0,-1.926 0.477,-3.61 1.437,-5.047 0.969,-1.438 2.313,-2.539 4.032,-3.313 1.726,-0.769 3.734,-1.156 6.015,-1.156 3.227,0 5.875,0.813 7.938,2.438 2.062,1.617 3.207,3.828 3.437,6.64 h -6.047 c -0.105,-1.312 -0.679,-2.406 -1.718,-3.281 -1.032,-0.883 -2.43,-1.328 -4.188,-1.328 -1.605,0 -2.898,0.414 -3.875,1.234 -0.969,0.813 -1.453,2.016 -1.453,3.61 0,1.031 0.305,1.875 0.922,2.531 0.625,0.656 1.414,1.18 2.375,1.562 0.969,0.375 2.285,0.789 3.953,1.235 2.207,0.617 4.004,1.226 5.391,1.828 1.394,0.605 2.578,1.543 3.547,2.812 0.976,1.262 1.468,2.95 1.468,5.063 0,1.699 -0.461,3.297 -1.375,4.797 -0.906,1.5 -2.234,2.711 -3.984,3.625 -1.742,0.918 -3.793,1.375 -6.156,1.375 z"
       style="fill:#dfdad4;fill-opacity:1;fill-rule:nonzero;stroke:none"
       transform="scale(1.3333333)" />
    <path
       id="path4"
       d="m 214.809,135.039 c 0,1.699 -0.403,3.297 -1.204,4.797 -0.793,1.5 -2.07,2.726 -3.828,3.672 -1.761,0.949 -4.015,1.422 -6.765,1.422 h -6.047 v 13.531 h -5.485 v -33.359 h 11.532 c 2.55,0 4.711,0.445 6.484,1.328 1.781,0.875 3.109,2.07 3.984,3.578 0.883,1.5 1.329,3.18 1.329,5.031 z m -11.797,5.609 c 2.07,0 3.617,-0.492 4.64,-1.484 1.032,-0.988 1.547,-2.363 1.547,-4.125 0,-1.789 -0.515,-3.18 -1.547,-4.172 -1.023,-1 -2.57,-1.5 -4.64,-1.5 h -6.047 v 11.281 z"
       style="fill:#dfdad4;fill-opacity:1;fill-rule:nonzero;stroke:none"
       transform="scale(1.3333333)" />
    <path
       id="path5"
       d="m 225.559,129.32 v 10.125 h 11.515 v 4.235 h -11.515 v 10.515 h 12.953 v 4.266 h -18.438 v -33.406 h 18.438 v 4.265 z"
       style="fill:#dfdad4;fill-opacity:1;fill-rule:nonzero;stroke:none"
       transform="scale(1.3333333)" />
    <path
       id="path6"
       d="m 262.527,158.461 -7.672,-13.344 h -4.171 v 13.344 h -5.485 v -33.359 h 11.531 c 2.551,0 4.711,0.449 6.485,1.343 1.781,0.899 3.109,2.102 3.984,3.61 0.883,1.5 1.328,3.179 1.328,5.031 0,2.18 -0.632,4.156 -1.89,5.937 -1.262,1.774 -3.203,2.977 -5.828,3.61 l 8.25,13.828 z m -11.843,-17.656 h 6.046 c 2.04,0 3.582,-0.508 4.625,-1.532 1.04,-1.031 1.563,-2.425 1.563,-4.187 0,-1.789 -0.516,-3.191 -1.547,-4.203 -1.023,-1.008 -2.57,-1.516 -4.641,-1.516 h -6.046 z"
       style="fill:#dfdad4;fill-opacity:1;fill-rule:nonzero;stroke:none"
       transform="scale(1.3333333)" />
    <path
       id="path7"
       d="m 273.762,141.711 c 0,-3.258 0.758,-6.188 2.281,-8.781 1.519,-2.594 3.582,-4.618 6.187,-6.078 2.602,-1.457 5.458,-2.188 8.563,-2.188 3.551,0 6.711,0.875 9.484,2.625 2.77,1.742 4.774,4.211 6.016,7.406 h -6.563 c -0.867,-1.656 -2.07,-2.906 -3.609,-3.75 -1.531,-0.851 -3.309,-1.281 -5.328,-1.281 -2.211,0 -4.18,0.496 -5.906,1.484 -1.731,0.993 -3.086,2.399 -4.063,4.219 -0.969,1.824 -1.453,3.938 -1.453,6.344 0,2.398 0.484,4.516 1.453,6.359 0.977,1.844 2.332,3.262 4.063,4.25 1.726,0.992 3.695,1.485 5.906,1.485 2.019,0 3.797,-0.422 5.328,-1.266 1.539,-0.851 2.742,-2.113 3.609,-3.781 h 6.563 c -1.242,3.211 -3.246,5.68 -6.016,7.406 -2.773,1.719 -5.933,2.578 -9.484,2.578 -3.137,0 -6,-0.722 -8.594,-2.172 -2.586,-1.457 -4.637,-3.484 -6.156,-6.078 -1.523,-2.594 -2.281,-5.519 -2.281,-8.781 z"
       style="fill:#dfdad4;fill-opacity:1;fill-rule:nonzero;stroke:none"
       transform="scale(1.3333333)" />
    <path
       id="path8"
       d="m 312.699,125.102 h 5.484 v 33.359 h -5.484 z"
       style="fill:#dfdad4;fill-opacity:1;fill-rule:nonzero;stroke:none"
       transform="scale(1.3333333)" />
    <g
       id="g9"
       clip-path="url(#clipPath10)"
       style="stroke:#dfdad4;stroke-opacity:1;fill:none;fill-opacity:1">
      <path
         d="m 297.125,79.086 h 38.848 v 37.988 h -38.848 z"
         style="fill:none;stroke:#dfdad4;stroke-width:5.57008;stroke-linecap:butt;stroke-linejoin:miter;stroke-miterlimit:4;stroke-dasharray:none;stroke-opacity:1;fill-opacity:1"
         transform="scale(1.3333333)"
         id="path9" />
    </g>
    <path
       id="path11"
       d="m 325.523,115.395 c 1.938,-1.625 3.461,-2.954 4.579,-3.985 1.113,-1.039 2.046,-2.125 2.796,-3.25 0.75,-1.125 1.125,-2.203 1.125,-3.234 0,-1 -0.242,-1.774 -0.718,-2.328 -0.469,-0.551 -1.203,-0.828 -2.203,-0.828 -1,0 -1.762,0.335 -2.282,1 -0.523,0.656 -0.797,1.574 -0.828,2.75 h -4.094 c 0.082,-2.395 0.797,-4.211 2.141,-5.454 1.352,-1.238 3.07,-1.859 5.156,-1.859 1.52,0 2.805,0.281 3.86,0.844 1.062,0.554 1.859,1.312 2.39,2.281 0.532,0.969 0.797,2.074 0.797,3.313 0,1.5 -0.418,2.945 -1.25,4.328 -0.824,1.375 -1.773,2.586 -2.844,3.625 -1.074,1.043 -2.492,2.304 -4.25,3.781 h 8.86 v 3.484 H 323.93 v -3.125 z"
       style="fill:#dfdad4;fill-opacity:1;fill-rule:nonzero;stroke:none;stroke-opacity:1"
       transform="scale(1.3333333)" />
  </g>
</svg>
